# xmcd
#
# Track frame offsets: 
#        151
#        21937
#        37232
#        53613
#        78142
#        100534
#        120470
#        142824
#        157530
#
# Disc length: 2387 seconds
#
# Revision: 2
# Processed by: cddbd v1.5.2PL0 Copyright (c) Steve Scherf et al.
# Submitted via: ExactAudioCopy v0.95b4
#
DISCID=5a095109
DTITLE=Marilyn Wong ¶À¹Å®¦ - ¨ÌµM·Q§A Jeremy CD1
DYEAR=2004
DGENRE=Jazz
TTITLE0=The Painter
TTITLE1=Just tell me you love me
TTITLE2=Love of my life
TTITLE3=Jeremy
TTITLE4=Something in your eyes
TTITLE5=Time of you life
TTITLE6=Color of the wind
TTITLE7=Landy greensleeves
TTITLE8=You don't know me
EXTD=
EXTT0=
EXTT1=
EXTT2=
EXTT3=
EXTT4=
EXTT5=
EXTT6=
EXTT7=
EXTT8=
PLAYORDER=
